<?xml version="1.0" encoding="UTF-8"?>
<!DOCTYPE svg PUBLIC "-//W3C//DTD SVG 1.1//EN" "http://www.w3.org/Graphics/SVG/1.1/DTD/svg11.dtd">
<!-- Creator: CorelDRAW -->
<svg xmlns="http://www.w3.org/2000/svg" xml:space="preserve" width="56.7647mm" height="60.9656mm" version="1.1" style="shape-rendering:geometricPrecision; text-rendering:geometricPrecision; image-rendering:optimizeQuality; fill-rule:evenodd; clip-rule:evenodd"
viewBox="0 0 730.24 784.29"
 xmlns:xlink="http://www.w3.org/1999/xlink"
 xmlns:xodm="http://www.corel.com/coreldraw/odm/2003">
 <defs>
  <style type="text/css">
   <![CDATA[
    .fil4 {fill:#180D18}
    .fil1 {fill:#20333D}
    .fil2 {fill:#312224}
    .fil3 {fill:#4C403F}
    .fil8 {fill:#5C5A59}
    .fil5 {fill:#C5CCC7}
    .fil6 {fill:#E5A532}
    .fil7 {fill:#E5B14A}
    .fil10 {fill:#E9E8E6}
    .fil9 {fill:#F0CE79}
    .fil0 {fill:#F8F9F2}
   ]]>
  </style>
 </defs>
 <g id="Capa_x0020_1">
  <metadata id="CorelCorpID_0Corel-Layer"/>
  <g id="_1567946585392">
   <path class="fil0" d="M150.05 542.09c18.94,28.12 29.77,42.54 57.47,62.86 21.03,15.43 23.71,15.21 45.14,28.44 5.71,-2.95 11.85,-10.45 21.03,-8.62 8.2,1.63 10.29,9.92 15.41,14.35 23.2,-19.1 22.56,-0.22 31.36,9.81 29.14,0.64 55.13,0.61 84.24,0.11 3.81,-4.89 3.88,-14.18 10.98,-17.12 10.4,-4.29 15.74,3.78 20.65,7.31 13.74,-27.03 30.43,-8.33 36.82,-5.94 34.21,-17.89 30.62,-16.04 59.74,-38.14 6.86,-5.21 28.23,-29.71 34.23,-38.38 2.85,-4.12 5.28,-10.08 9.93,-14.16 0.44,-9.29 -12.41,-39.91 -15.61,-52.98 -13.09,-53.41 3.44,-113.14 41.28,-151.34 -4.92,1.44 -17.1,9.07 -23.78,12.33 -54.82,26.73 -126.46,24.1 -177.16,-15.59 -7.42,-5.81 -13.15,-13.2 -19.28,-19.5 -8.21,2.27 -7.95,11.11 -16.3,18.15 -6.36,-4.45 -9.98,-16.46 -16.25,-20.55 -8.35,5.68 -14.74,18.48 -41.76,33.6 -38.47,21.54 -82.28,25.81 -125.86,15.11 -29.02,-7.13 -37.79,-16.44 -55.31,-22.96 1.94,4.74 10.87,14.21 14.51,19.23 28.67,39.55 36.3,84.81 25.19,133.27 -3.85,16.76 -16.46,48.92 -16.67,50.71z"/>
   <path class="fil1" d="M1.26 784.29l728.62 0c1.34,-6.96 -1.39,-34.62 -3.53,-42.99 -4.92,-19.21 -11.29,-32.84 -23.75,-47.39 -50.96,-59.53 -188.61,-51.67 -199.37,-60.52 -7.55,1.85 -23.15,0.49 -29.09,4.78 -0.26,7.5 2.25,16.3 -4.81,23.93 -3.79,4.1 -2.59,2.46 -5.29,3.47 -3.47,-7.83 -3.37,-11.39 -10.38,-14.84 -5.31,2.71 -7.99,10.22 -11.61,14.66 -6.46,-3.51 -5.81,-8.28 -12.11,-12.88 -6.25,2.28 -7.17,6.33 -10.38,13.25 -10.82,-5.44 -8.25,-12.07 -14.86,-16.7 -29.11,0.5 -55.1,0.54 -84.24,-0.11 -4.26,3.04 -4.41,6.28 -6.97,10.01 -2.23,3.24 -4.52,5 -8.08,6.98 -3.94,-6.6 -3.5,-8.99 -8.48,-13.52 -6.69,2.76 -8.96,9.02 -13.76,13.73l-11.86 -15.55c-6.77,3.8 -6.68,6.34 -9.62,11.52l-1.8 2.68c-0.09,-0.22 -0.43,0.57 -0.67,0.82 -1.76,-2.14 -2.92,-3.46 -4.8,-6.76l-4.39 -8.07 -0.55 -13.35 -22.03 -4.61c-1.6,4.63 0.4,1.52 -3.71,3.15l-38.1 3.79c-13.65,1.46 -28.38,2.78 -42.16,4.7 -74.32,10.39 -154.55,42.19 -142.21,139.83z"/>
   <path class="fil0" d="M430.75 114.86c-3.01,3.84 -8.91,8.4 -12.19,11.64 -30.55,30.09 -46.18,77.53 -34.23,121.59 5.34,7.27 13.68,15.23 17.5,23.53l16.34 15.91c45.1,44.47 156.04,35.1 184.53,-58.26 5.48,-17.96 6.49,-38.72 2.72,-57.92 -10.47,-53.37 -45.94,-70.16 -50.54,-78.68 -19.6,3.92 -45.79,3.5 -66.93,6.79 -10.29,1.6 -20.87,3.59 -30.78,6.44 -8.66,2.49 -18.32,8.64 -26.44,8.97z"/>
   <path class="fil0" d="M330.74 270.51c5.77,-9.2 12.93,-15.38 18.89,-24.07 6.16,-28.76 3.44,-53.23 -7.47,-78.57 -4.99,-11.58 -11.68,-19.95 -17.8,-28.15 -8.63,-11.56 -14.28,-13.07 -23.75,-22.78 -6.56,-1.32 -18.6,-7.78 -27.38,-10.56 -39.74,-12.54 -85.75,-10.2 -98.38,-13.46 -3.91,6.2 -39.14,25.87 -48.12,81.1 -15.93,97.88 82.13,169.71 169.01,126.18 20.4,-10.22 31.62,-27.35 35,-29.69z"/>
   <path class="fil2" d="M637.28 223.35c-22.47,108.76 -159.06,157.35 -246.18,71.65 -3.09,4.09 -10.4,16 -8.6,20.54 6.14,6.3 11.86,13.7 19.28,19.5 50.71,39.69 122.34,42.32 177.16,15.59 6.68,-3.26 18.86,-10.89 23.78,-12.33 -37.85,38.19 -54.37,97.93 -41.28,151.34 3.2,13.07 16.06,43.69 15.61,52.98l1.92 -2.84c0.87,-3.29 0.7,-1.77 0.7,-5.68 0.01,9.93 14.46,33.47 20.76,41.8l27.52 -36.87c33.31,-52.95 45.45,-111.67 9.48,-168.38l-9.36 -12.82c-8.22,-11.36 -20.12,-19.32 -21.99,-21.28l32.79 -34.32c0.21,-0.23 0.53,-0.53 0.74,-0.75 8.49,-9.1 14.97,-25.65 21.38,-33.58 5.69,1.3 18.36,21.81 22.36,27.1 -0.87,-5.19 -18.92,-74.79 -19.17,-75.19 -1,3.27 0.5,1.88 -5.6,2.95 -2.16,0.38 -4.48,0.22 -6.52,0.27 -4.9,0.13 -9.8,0.42 -14.76,0.3z"/>
   <path class="fil2" d="M50.21 290.32c0.39,-0.23 0.81,-0.62 1.05,-0.85l16.88 -20.42c2.62,2.33 24.79,38.94 39.83,51.51l8.3 7.92c0.22,0.23 0.52,0.55 0.74,0.77l5.49 5.83c-0.99,2.24 0.44,0.4 -2.07,3.34 -1.05,1.23 -1.55,1.53 -3.11,2.75 -2.86,2.24 -3.12,2.07 -5.85,4.64 -9.77,9.18 -20.48,27.83 -26.39,40.11 -14.48,30.11 -13.28,44.17 -12.37,72.22 0.94,28.79 8.84,43.03 20.85,66.65 5.93,11.66 10.29,17.85 16.86,27.55 3.11,4.58 5.31,7.83 9.39,12.88 2.54,3.14 5.42,9.49 9.17,11.64 2.99,-4.45 6.16,-13.52 9.22,-19.07l6.7 -10.94c0.26,-0.37 0.98,-1.46 1.27,-1.79 3.24,-3.65 -2.39,-0.54 3.87,-2.96 0.21,-1.79 12.82,-33.94 16.67,-50.71 11.12,-48.46 3.48,-93.73 -25.19,-133.27 -3.64,-5.01 -12.57,-14.49 -14.51,-19.23 17.51,6.52 26.29,15.83 55.31,22.96 43.58,10.7 87.38,6.43 125.86,-15.11 27.01,-15.12 33.41,-27.92 41.76,-33.6l-10.16 -20.79c-18.03,18.48 -33.83,32.44 -62.32,40.28 -27.99,7.7 -60.66,6.58 -87.79,-1.8 -31.6,-9.76 -55.65,-30.54 -72.45,-53.79 -8.9,-12.31 -20.54,-38.96 -22.17,-53.78l-27.07 -2.63c-5.98,15.09 -16.72,51.59 -17.76,69.68z"/>
   <path class="fil3" d="M113.5 25.6c21.68,6.9 28.43,21.65 99.51,41.7 17.92,5.05 35.81,9.72 51.36,18.26 9.12,5.01 40.01,24.65 36.23,31.38 9.47,9.71 15.12,11.21 23.75,22.78 6.12,8.21 12.82,16.57 17.8,28.15 10.91,25.34 13.63,49.81 7.47,78.57 8.24,-1.08 11.49,-5.71 17.94,-5.17 5.57,0.47 9.58,5.16 16.76,6.82 -11.95,-44.06 3.68,-91.49 34.23,-121.59 3.28,-3.24 9.19,-7.8 12.19,-11.64 0.41,-7.07 26.44,-24.86 35.58,-29.49 35.67,-18.07 74,-23.73 100.84,-37.09l47.16 -22.79c-1.65,-2.18 -3.2,2.07 0.04,-6.96l0.93 -2.22c1.51,-4.38 1.83,-6.46 2.14,-11.06 -4.23,1.82 -0.72,0.1 -4.85,2.32l-9.47 5.68c-5.83,3.65 -6.3,3.39 -13.04,6.36 -6.32,2.78 -5.63,4.29 -12.93,6.37 -6.52,1.87 -9.03,2.12 -14.85,4.42 -16.31,6.46 -44.69,11.04 -63.21,14.57 -7.51,1.65 -15,3.93 -23.1,5.58 -16.5,3.36 -49.68,21.46 -61.48,30.28 -19.16,14.33 -43.59,42.09 -47.98,75.56 -7.16,-10.19 -14.35,-66.92 -90.27,-96.43 -7.71,-3 -14.29,-6.29 -21.99,-9.12 -6.86,-2.52 -17.71,-3.98 -24.81,-6.22 2.01,1.52 0.66,1.01 5.2,1 -2.6,-2.65 -2.45,-1.37 -7.75,-1.87 -43.62,-4.1 -53.77,-7.05 -91.71,-23.25 -16.31,-6.96 -17.92,-11.51 -26.34,-15.22 0.44,10.65 4.37,11.7 4.63,20.31z"/>
   <path class="fil4" d="M577.06 542.62c-4.65,4.08 -7.08,10.04 -9.93,14.16 -6,8.68 -27.37,33.18 -34.23,38.38 -29.12,22.1 -25.53,20.25 -59.74,38.14 -0.68,4.45 -1.32,1.57 0.99,4.85 5.94,-4.28 21.54,-2.93 29.09,-4.78 52.77,-19.59 72.76,-25.87 111.79,-65.8 25.01,-25.58 15.82,-18.79 36.62,-43.76l3.4 8.82c3.6,-4.05 7.1,-18.96 10.32,-27.36 13.13,-34.3 18.56,-35.24 27.89,-83.3 4.19,-21.6 5.68,-45.32 3.58,-67.73 -2.25,-23.95 -7.74,-38.02 -13.49,-59.24 -4,-5.29 -16.67,-25.8 -22.36,-27.1 -6.41,7.92 -12.89,24.48 -21.38,33.58 -0.21,0.22 -0.53,0.52 -0.74,0.75l-32.79 34.32c1.87,1.95 13.77,9.92 21.99,21.28l9.36 12.82c35.97,56.71 23.83,115.43 -9.48,168.38l-27.52 36.87c-6.3,-8.33 -20.75,-31.87 -20.76,-41.8 0,3.91 0.17,2.39 -0.7,5.68l-1.92 2.84z"/>
   <path class="fil4" d="M50.21 290.32c-16.76,24.12 -16.16,98.3 -12.01,129.78 2.78,21.04 7.56,41.17 14.83,59.09l22.58 51.6c2.5,-3.74 0.56,-2.71 4.24,-5.74 13.05,24 38.14,51.12 60.54,66.91 21.67,15.26 54.14,35.13 87.05,40.85l22.03 4.61 0.55 13.35c0.69,-3.67 2.76,-15.04 2.63,-17.38 -21.43,-13.23 -24.11,-13.01 -45.14,-28.44 -27.7,-20.32 -38.53,-34.74 -57.47,-62.86 -6.25,2.42 -0.63,-0.69 -3.87,2.96 -0.29,0.33 -1.01,1.42 -1.27,1.79l-6.7 10.94c-3.06,5.54 -6.23,14.62 -9.22,19.07 -3.75,-2.15 -6.64,-8.5 -9.17,-11.64 -4.08,-5.06 -6.28,-8.3 -9.39,-12.88 -6.57,-9.7 -10.93,-15.89 -16.86,-27.55 -12.01,-23.62 -19.9,-37.86 -20.85,-66.65 -0.92,-28.05 -2.12,-42.12 12.37,-72.22 5.91,-12.28 16.62,-30.93 26.39,-40.11 2.73,-2.57 2.99,-2.4 5.85,-4.64 1.55,-1.22 2.05,-1.52 3.11,-2.75 2.51,-2.93 1.08,-1.09 2.07,-3.34l-5.49 -5.83c-0.22,-0.22 -0.53,-0.54 -0.74,-0.77l-8.3 -7.92c-15.05,-12.57 -37.21,-49.18 -39.83,-51.51l-16.88 20.42c-0.24,0.23 -0.66,0.62 -1.05,0.85z"/>
   <path class="fil3" d="M95.05 223.27c1.63,14.82 13.27,41.46 22.17,53.78 16.8,23.25 40.85,44.03 72.45,53.79 27.13,8.38 59.8,9.5 87.79,1.8 28.49,-7.84 44.29,-21.8 62.32,-40.28l-9.04 -21.84c-3.37,2.34 -14.6,19.47 -35,29.69 -86.89,43.53 -184.94,-28.3 -169.01,-126.18 8.98,-55.22 44.21,-74.9 48.12,-81.1 -24.99,1.45 -36.76,-10.04 -46.39,1.44 -34.28,40.88 -40.22,74.93 -33.42,128.91z"/>
   <path class="fil3" d="M554.89 92.67c4.6,8.52 40.06,25.31 50.54,78.68 3.77,19.21 2.76,39.97 -2.72,57.92 -28.5,93.36 -139.43,102.73 -184.53,58.26l-16.34 -15.91 -10.73 23.39c87.13,85.7 223.72,37.11 246.18,-71.65 8.51,-57.58 -10.03,-104.26 -39.81,-134.29l-42.58 3.6z"/>
   <path class="fil5" d="M449.56 259.72c-2.42,-3.95 -3.12,-4.14 -6.34,-7.65 -2.72,-2.97 -4.07,-5.61 -5.99,-8.75 -6.83,-22.68 -10.26,-32.88 3.46,-53.24 23.66,-35.11 69.4,-28.03 88.27,4.48 8.02,13.82 12.12,43.02 -1.12,52.63 11.57,17.15 32.61,-4.59 40.59,-15.31 9.86,-13.24 13.83,-36.76 9.21,-56.24 -4.76,-20.12 -17.39,-32.38 -27.68,-42.12 -10.94,-10.36 -31.33,-18.55 -51.83,-18.29 -93.72,1.23 -125.62,131.13 -48.56,144.49z"/>
   <path class="fil4" d="M614.33 25.49l-47.16 22.79c-26.84,13.35 -65.17,19.02 -100.84,37.09 -9.15,4.63 -35.17,22.42 -35.58,29.49 8.13,-0.33 17.78,-6.48 26.44,-8.97 9.91,-2.85 20.49,-4.84 30.78,-6.44 21.14,-3.29 47.33,-2.87 66.93,-6.79l42.58 -3.6c29.79,30.03 48.32,76.71 39.81,134.29 4.96,0.12 9.86,-0.17 14.76,-0.3 2.04,-0.06 4.36,0.11 6.52,-0.27 6.1,-1.07 4.6,0.32 5.6,-2.95 -10.09,-32.21 -30.12,-68.96 -15.15,-111.96 5.61,-16.13 10.66,-19 18.17,-27.75 -8.57,0.3 -24.78,3.02 -30.71,-0.24 1.49,-5.1 10.51,-6.83 21.76,-19.1 5.8,-6.33 15.75,-14.38 19.22,-22.61l-25.33 6.25c7.22,-15.56 12.34,-18.61 21.65,-44.42 -6.79,2.04 -21.14,10.29 -29.61,14.12 -9.06,4.1 -19.76,9.43 -29.84,11.37z"/>
   <path class="fil5" d="M208.47 248.33c-6.61,-13.91 -13.04,-20.83 -6.54,-40.56 9.04,-27.46 36.72,-45.44 62.92,-39.5 12.24,2.78 26.01,11.82 29.9,20.37 -4.69,-1.39 -10.18,-3.25 -13.84,0.43l14.24 2.62c0.19,-0.35 0.76,0.12 1.13,0.18 3.46,1.89 4.95,6.24 6.23,9.66 4.6,12.41 4.4,25.52 -1.04,36.88 -1.45,4.97 -4.8,9.82 -7.15,12.92 -4.09,5.41 -7.27,5.07 -10.81,10.01 62.68,-15.1 50.7,-93.98 5.05,-127.41 -79.69,-58.35 -165.94,33.13 -123.67,95.52 7.53,11.11 22.55,26.49 38.29,23.13 6.73,-1.44 3.37,0.92 5.29,-4.27z"/>
   <path class="fil4" d="M67.97 220.64l27.07 2.63c-6.8,-53.98 -0.86,-88.03 33.42,-128.91 9.63,-11.48 21.39,0.01 46.39,-1.44 12.63,3.25 58.64,0.91 98.38,13.46 8.78,2.77 20.82,9.24 27.38,10.56 3.78,-6.72 -27.11,-26.36 -36.23,-31.38 -15.56,-8.55 -33.45,-13.21 -51.36,-18.26 -71.08,-20.04 -77.82,-34.8 -99.51,-41.7 -10.63,-3.44 -22.06,-6.86 -31.62,-11.12l-27.99 -14.3c1.59,7.41 5.49,16.54 8.66,23.32 3.76,8.05 8.85,14.69 11.67,21.77l-22.67 -6.83c18.93,30.64 40.89,34.53 46,44.19l-33.84 -2.27c17.04,9.1 25.76,43.16 24.53,67.91 -1.3,26.19 -5.86,34.44 -14.04,56.38 -1.83,4.92 -4.91,10.64 -6.22,15.98z"/>
   <path class="fil4" d="M234.67 45.62c-4.55,0.01 -3.19,0.52 -5.2,-1 7.11,2.24 17.96,3.69 24.81,6.22 7.69,2.83 14.28,6.12 21.99,9.12 75.92,29.5 83.11,86.24 90.27,96.43 4.4,-33.46 28.82,-61.23 47.98,-75.56 11.8,-8.82 44.98,-26.92 61.48,-30.28 8.1,-1.65 15.59,-3.92 23.1,-5.58 -10.92,0.31 -23.18,3.09 -33.6,2.36 -10.07,-0.71 -20.37,-4.38 -30.38,-6.58 -20.99,-4.62 -43.05,-7.17 -65.94,-7.34 -64.39,-0.47 -85.88,15.49 -134.49,12.21z"/>
   <path class="fil4" d="M437.23 243.33c3.83,-0.99 2.29,-0.51 4.76,-2.95l11.68 -11.94c9.09,12.45 20.57,28.51 43.77,21.5 2.81,-0.85 5.75,-2.39 8.08,-3.79 2.08,-1.25 1.35,-0.79 3.55,-2.37l2.88 -2.15c0.24,-0.18 0.66,-0.52 1.01,-0.76l4.42 -2.68c5.96,3.73 6.19,5.2 10.47,9.01 13.24,-9.61 9.14,-38.82 1.12,-52.63 -18.86,-32.51 -64.61,-39.59 -88.27,-4.48 -13.72,20.37 -10.29,30.56 -3.46,53.24z"/>
   <path class="fil4" d="M208.47 248.33c5.68,-1.57 10.1,-5.43 14.79,-6.99 6.91,2.08 7.11,5.46 14.93,8.29 6.43,2.32 13.58,2.52 19.95,1.05 11.56,-2.66 21.32,-12.11 24.18,-21.5 12.45,4.73 1.43,7.69 19.15,9.25 5.44,-11.37 5.64,-24.48 1.04,-36.88 -1.27,-3.43 -2.76,-7.78 -6.23,-9.66 0.28,9.5 -1.4,13.72 -8.65,17.42 -16.2,2.51 -23.38,-19.01 -6.72,-20.23 3.66,-3.68 9.15,-1.83 13.84,-0.43 -3.88,-8.55 -17.65,-17.59 -29.9,-20.37 -26.2,-5.94 -53.88,12.03 -62.92,39.5 -6.49,19.74 -0.07,26.65 6.54,40.56z"/>
   <path class="fil6" d="M349.63 246.44c-5.96,8.7 -13.12,14.87 -18.89,24.07l9.04 21.84 10.16 20.79c6.27,4.1 9.89,16.1 16.25,20.55 8.36,-7.04 8.09,-15.88 16.3,-18.15 -1.79,-4.54 5.51,-16.45 8.6,-20.54l10.73 -23.39c-3.82,-8.3 -12.16,-16.25 -17.5,-23.53 -7.19,-1.66 -11.19,-6.35 -16.76,-6.82 -6.45,-0.54 -9.7,4.09 -17.94,5.17z"/>
   <path class="fil7" d="M404.7 649.04c6.61,4.64 4.04,11.26 14.86,16.7 3.21,-6.92 4.13,-10.97 10.38,-13.25 6.3,4.6 5.64,9.37 12.11,12.88 3.63,-4.45 6.31,-11.95 11.61,-14.66 7,3.45 6.91,7.01 10.38,14.84 2.7,-1.01 1.5,0.63 5.29,-3.47 7.06,-7.62 4.55,-16.42 4.81,-23.93 -2.31,-3.28 -1.66,-0.4 -0.99,-4.85 -6.39,-2.39 -23.08,-21.1 -36.82,5.94 -4.91,-3.54 -10.25,-11.6 -20.65,-7.31 -7.11,2.93 -7.17,12.22 -10.98,17.12z"/>
   <path class="fil7" d="M252.66 633.39c0.12,2.34 -1.95,13.71 -2.63,17.38l4.39 8.07c1.88,3.3 3.04,4.62 4.8,6.76 0.24,-0.26 0.58,-1.04 0.67,-0.82l1.8 -2.68c2.94,-5.18 2.85,-7.73 9.62,-11.52l11.86 15.55c4.8,-4.71 7.07,-10.97 13.76,-13.73 4.98,4.53 4.54,6.93 8.48,13.52 3.56,-1.97 5.86,-3.73 8.08,-6.98 2.56,-3.73 2.72,-6.97 6.97,-10.01 -8.8,-10.03 -8.17,-28.91 -31.36,-9.81 -5.13,-4.43 -7.22,-12.72 -15.41,-14.35 -9.18,-1.83 -15.32,5.66 -21.03,8.62z"/>
   <path class="fil8" d="M223.26 241.34l-7.35 13.56c4.68,8.87 16.86,15.07 30.29,16.12 18.83,1.47 24.44,-5.55 37.3,-9.65 3.54,-4.94 6.72,-4.6 10.81,-10.01 2.34,-3.11 5.7,-7.96 7.15,-12.92 -17.72,-1.55 -6.7,-4.51 -19.15,-9.25 -2.86,9.39 -12.62,18.83 -24.18,21.5 -6.37,1.47 -13.52,1.27 -19.95,-1.05 -7.82,-2.83 -8.01,-6.2 -14.93,-8.29z"/>
   <path class="fil8" d="M437.23 243.33c1.93,3.14 3.27,5.78 5.99,8.75 3.22,3.51 3.92,3.7 6.34,7.65 10.5,4.22 19.45,11.96 35.24,11.76 13.62,-0.18 28.05,-7.1 34.91,-13.99 -2.06,-6.55 -6.04,-4.95 -6.77,-16.63 -0.35,0.24 -0.77,0.59 -1.01,0.76l-2.88 2.15c-2.2,1.58 -1.47,1.12 -3.55,2.37 -2.33,1.4 -5.27,2.94 -8.08,3.79 -23.2,7.01 -34.68,-9.05 -43.77,-21.5l-11.68 11.94c-2.47,2.44 -0.93,1.95 -4.76,2.95z"/>
   <path class="fil9" d="M368.11 288.95c4.02,-5.74 14.59,-34.78 -0.78,-36.64 -12.81,-1.55 -7.22,21.09 -4.97,28.77 1.96,6.65 1.35,6.08 5.75,7.87z"/>
   <path class="fil10" d="M449.57 186.98c1.4,-4.63 1.16,-3.3 3.57,-7.02 -4,2.79 -10.64,6.28 -12.1,12.04 -1.9,7.52 1.7,15.65 8.49,16.79 8.27,1.38 15.35,-2.34 14.92,-10 -0.5,-8.75 -8.34,-8.72 -14.88,-11.8z"/>
   <path class="fil0" d="M296.27 191.87c-0.38,-0.05 -0.94,-0.53 -1.13,-0.18l-14.24 -2.62c-16.66,1.22 -9.48,22.74 6.72,20.23 7.25,-3.7 8.93,-7.92 8.65,-17.42z"/>
  </g>
 </g>
</svg>
