<?xml version="1.0" encoding="UTF-8"?>
<!DOCTYPE svg PUBLIC "-//W3C//DTD SVG 1.1//EN" "http://www.w3.org/Graphics/SVG/1.1/DTD/svg11.dtd">
<!-- Creator: CorelDRAW -->
<svg xmlns="http://www.w3.org/2000/svg" xml:space="preserve" width="56.7647mm" height="60.9656mm" version="1.1" style="shape-rendering:geometricPrecision; text-rendering:geometricPrecision; image-rendering:optimizeQuality; fill-rule:evenodd; clip-rule:evenodd"
viewBox="0 0 1187.69 1275.59"
 xmlns:xlink="http://www.w3.org/1999/xlink"
 xmlns:xodm="http://www.corel.com/coreldraw/odm/2003">
 <defs>
  <style type="text/css">
   <![CDATA[
    .fil4 {fill:#180D18}
    .fil1 {fill:#20333D}
    .fil2 {fill:#312224}
    .fil3 {fill:#4C403F}
    .fil8 {fill:#5C5A59}
    .fil5 {fill:#C5CCC7}
    .fil6 {fill:#E5A532}
    .fil7 {fill:#E5B14A}
    .fil10 {fill:#E9E8E6}
    .fil9 {fill:#F0CE79}
    .fil0 {fill:#F8F9F2}
   ]]>
  </style>
 </defs>
 <g id="Capa_x0020_1">
  <metadata id="CorelCorpID_0Corel-Layer"/>
  <g id="_1567929651968">
   <path class="fil0" d="M281.54 933.06c14.88,17.56 31.32,32.77 55.96,50.85 34.21,25.1 38.57,24.75 73.43,46.26 9.29,-4.81 19.27,-16.99 34.2,-14.01 13.33,2.66 16.73,16.14 25.07,23.34 37.73,-31.07 36.69,-0.36 51.01,15.95 47.39,1.05 89.66,0.99 137.01,0.18 6.2,-7.96 6.3,-23.07 17.87,-27.84 16.91,-6.97 25.6,6.15 33.58,11.9 22.35,-43.97 49.5,-13.55 59.89,-9.65 55.64,-29.1 49.8,-26.08 97.17,-62.03 11.16,-8.47 45.91,-48.31 55.67,-62.43 64.91,-93.88 136.37,-248.27 57.89,-355.34 -8,2.34 -27.81,14.75 -38.68,20.05 -89.16,43.48 -205.67,39.2 -288.14,-25.35 -12.07,-9.44 -21.38,-21.47 -31.36,-31.72 -13.35,3.69 -12.93,18.07 -26.52,29.52 -10.34,-7.25 -16.23,-26.76 -26.43,-33.43 -13.58,9.23 -23.98,30.05 -67.91,54.65 -62.58,35.03 -133.82,41.98 -204.7,24.57 -47.2,-11.59 -61.47,-26.75 -89.95,-37.35 -51.25,129.06 -13.38,277.62 74.95,381.88z"/>
   <path class="fil1" d="M2.05 1275.59l1185.06 0c2.18,-11.32 -2.25,-56.31 -5.74,-69.92 -7.99,-31.24 -18.37,-53.41 -38.63,-77.08 -82.89,-96.82 -306.77,-84.04 -324.26,-98.43 -12.28,3 -37.65,0.8 -47.32,7.77 -0.43,12.2 3.66,26.51 -7.83,38.91 -6.17,6.66 -4.22,4 -8.61,5.64 -5.64,-12.73 -5.49,-18.52 -16.88,-24.14 -8.63,4.41 -12.99,16.62 -18.89,23.85 -10.52,-5.7 -9.45,-13.46 -19.69,-20.95 -10.16,3.71 -11.66,10.3 -16.88,21.55 -17.6,-8.85 -13.42,-19.63 -24.17,-27.17 -47.35,0.82 -89.62,0.87 -137.01,-0.18 -6.92,4.94 -7.18,10.21 -11.34,16.27 -3.62,5.27 -7.36,8.14 -13.15,11.35 -6.41,-10.73 -5.7,-14.63 -13.79,-22 -10.89,4.49 -14.58,14.67 -22.38,22.33l-19.29 -25.3c-11.01,6.17 -10.86,10.32 -15.64,18.74l-2.93 4.35c-0.14,-0.36 -0.69,0.92 -1.09,1.34 -2.87,-3.47 -4.75,-5.63 -7.81,-10.99l-7.15 -13.12 -0.9 -21.71 -35.82 -7.5c-2.61,7.53 0.65,2.47 -6.04,5.13l-61.96 6.17c-22.2,2.37 -46.16,4.52 -68.56,7.65 -120.88,16.9 -251.36,68.62 -231.3,227.42z"/>
   <path class="fil0" d="M700.58 186.82c-4.89,6.25 -14.49,13.67 -19.83,18.93 -49.69,48.94 -75.11,126.09 -55.67,197.75 8.69,11.83 22.25,24.77 28.47,38.26l26.58 25.88c73.36,72.33 253.78,57.09 300.13,-94.75 8.92,-29.21 10.56,-62.97 4.43,-94.21 -17.04,-86.8 -74.72,-114.1 -82.2,-127.96 -31.87,6.37 -74.47,5.68 -108.85,11.04 -16.73,2.6 -33.95,5.84 -50.06,10.47 -14.09,4.05 -29.79,14.05 -43.01,14.59z"/>
   <path class="fil0" d="M537.93 439.96c9.39,-14.96 21.02,-25.01 30.72,-39.15 10.02,-46.78 5.59,-86.57 -12.15,-127.79 -8.11,-18.84 -18.99,-32.44 -28.95,-45.79 -14.03,-18.81 -23.22,-21.25 -38.62,-37.05 -10.66,-2.14 -30.25,-12.66 -44.53,-17.17 -64.63,-20.4 -139.46,-16.6 -160,-21.89 -6.37,10.08 -63.65,42.08 -78.27,131.9 -25.9,159.2 133.57,276.03 274.89,205.23 33.18,-16.62 51.44,-44.49 56.93,-48.29z"/>
   <path class="fil2" d="M1036.5 363.27c-36.54,176.89 -258.7,255.92 -400.4,116.53 -5.02,6.66 -16.91,26.03 -13.99,33.41 9.98,10.25 19.3,22.28 31.36,31.72 82.47,64.55 198.98,68.83 288.14,25.35 10.87,-5.3 30.68,-17.72 38.68,-20.05l5.46 -2.85 53.33 -55.81c0.34,-0.37 0.86,-0.86 1.19,-1.22 13.81,-14.8 24.34,-41.72 34.77,-54.61 9.25,2.11 29.87,35.48 36.36,44.08 -1.41,-8.44 -30.77,-121.64 -31.18,-122.29 -1.63,5.32 0.82,3.06 -9.11,4.8 -3.51,0.62 -7.29,0.35 -10.61,0.44 -7.98,0.21 -15.93,0.68 -24.01,0.49z"/>
   <path class="fil2" d="M81.66 472.19c0.63,-0.38 1.31,-1.01 1.71,-1.39l27.45 -33.22c4.27,3.79 40.31,63.33 64.79,83.78l13.5 12.88c0.36,0.37 0.85,0.89 1.21,1.25l8.93 9.48 7.34 6.2c28.49,10.6 42.75,25.75 89.95,37.35 70.87,17.41 142.12,10.46 204.7,-24.57 43.93,-24.6 54.33,-45.42 67.91,-54.65l-16.52 -33.82c-29.33,30.05 -55.02,52.77 -101.36,65.52 -45.53,12.53 -98.66,10.7 -142.78,-2.93 -51.4,-15.87 -90.51,-49.68 -117.84,-87.49 -14.47,-20.02 -33.41,-63.36 -36.06,-87.46l-44.03 -4.28c-9.73,24.54 -27.2,83.91 -28.89,113.33z"/>
   <path class="fil3" d="M184.6 41.63c35.27,11.22 46.24,35.22 161.84,67.82 29.14,8.22 58.24,15.8 83.54,29.7 14.84,8.15 65.08,40.09 58.93,51.03 15.4,15.79 24.59,18.24 38.62,37.05 9.96,13.35 20.84,26.95 28.95,45.79 17.74,41.22 22.17,81.02 12.15,127.79 13.41,-1.75 18.69,-9.29 29.18,-8.41 9.06,0.76 15.58,8.4 27.26,11.09 -19.44,-71.66 5.98,-148.81 55.67,-197.75 5.34,-5.26 14.94,-12.68 19.83,-18.93 0.67,-11.5 42.99,-40.43 57.87,-47.97 58.01,-29.38 120.36,-38.6 164.01,-60.32l76.7 -37.07c-2.68,-3.55 -5.2,3.37 0.07,-11.32l1.51 -3.61c2.46,-7.12 2.97,-10.5 3.48,-17.98 -6.87,2.96 -1.17,0.17 -7.89,3.78l-15.4 9.23c-9.49,5.93 -10.25,5.51 -21.21,10.34 -10.27,4.53 -9.17,6.97 -21.03,10.36 -10.61,3.04 -14.69,3.45 -24.15,7.2 -26.53,10.5 -72.68,17.95 -102.81,23.69 -12.21,2.69 -24.4,6.39 -37.57,9.07 -26.83,5.47 -80.8,34.91 -99.99,49.25 -31.17,23.3 -70.89,68.46 -78.04,122.89 -11.64,-16.57 -23.34,-108.85 -146.81,-156.83 -12.54,-4.87 -23.25,-10.23 -35.76,-14.83 -11.15,-4.11 -28.8,-6.47 -40.36,-10.11 3.27,2.47 1.07,1.65 8.47,1.63 -4.23,-4.32 -3.99,-2.23 -12.6,-3.04 -70.94,-6.67 -87.46,-11.46 -149.16,-37.81 -26.52,-11.32 -29.15,-18.71 -42.84,-24.76 0.72,17.32 7.11,19.03 7.53,33.03z"/>
   <path class="fil4" d="M922.4 905.57c-9.76,14.11 -44.51,53.96 -55.67,62.43 -47.37,35.95 -41.53,32.93 -97.17,62.03 -1.1,7.24 -2.15,2.56 1.61,7.89 9.66,-6.96 35.04,-4.76 47.32,-7.77 85.82,-31.87 118.33,-42.07 181.82,-107.02 57.22,-58.53 111.78,-157.21 127.23,-236.82 6.82,-35.14 9.25,-73.72 5.82,-110.15 -3.66,-38.96 -12.59,-61.83 -21.94,-96.34 -6.5,-8.6 -27.11,-41.97 -36.36,-44.08 -10.43,12.89 -20.96,39.81 -34.77,54.61 -0.34,0.36 -0.86,0.85 -1.19,1.22l-60.68 58.2c74.25,106.67 12.01,257.42 -56.01,355.79z"/>
   <path class="fil4" d="M81.66 472.19c-27.27,39.23 -26.29,159.88 -19.53,211.08 4.52,34.22 12.29,66.95 24.13,96.11 33.05,75.52 67.07,130.56 142.09,183.41 35.24,24.82 88.06,57.14 141.58,66.44l35.82 7.5 0.9 21.71c1.12,-5.97 4.49,-24.45 4.29,-28.26 -34.85,-21.52 -39.21,-21.17 -73.43,-46.26 -38.47,-28.22 -56.93,-49.45 -80.69,-83.52 -41.15,-59.03 -65.05,-116.8 -71.26,-187.45 -4.12,-46.88 -6.52,-99.45 21.03,-161.76l-16.27 -15.68c-0.36,-0.36 -0.86,-0.88 -1.21,-1.25l-13.5 -12.88c-24.48,-20.45 -60.52,-79.98 -64.79,-83.78l-27.45 33.22c-0.39,0.37 -1.08,1.01 -1.71,1.39z"/>
   <path class="fil3" d="M154.59 363.13c2.66,24.1 21.59,67.44 36.06,87.46 27.33,37.81 66.45,71.61 117.84,87.49 44.12,13.63 97.25,15.45 142.78,2.93 46.34,-12.75 72.03,-35.46 101.36,-65.52l-14.71 -35.53c-5.49,3.8 -23.75,31.66 -56.93,48.29 -141.32,70.8 -300.79,-46.03 -274.89,-205.23 14.61,-89.81 71.9,-121.82 78.27,-131.9 -40.65,2.35 -59.79,-16.33 -75.45,2.34 -55.75,66.49 -65.42,121.87 -54.35,209.66z"/>
   <path class="fil3" d="M902.5 150.72c7.48,13.86 65.16,41.16 82.2,127.96 6.13,31.24 4.49,65 -4.43,94.21 -46.35,151.84 -226.77,167.08 -300.13,94.75l-26.58 -25.88 -17.46 38.04c141.7,139.39 363.86,60.36 400.4,-116.53 13.83,-93.65 -16.31,-169.57 -64.76,-218.41l-69.25 5.86z"/>
   <path class="fil5" d="M731.18 422.42c-3.94,-6.42 -5.07,-6.73 -10.32,-12.44 -4.43,-4.82 -6.61,-9.12 -9.74,-14.23 -11.11,-36.89 -16.69,-53.47 5.62,-86.6 38.47,-57.11 112.88,-45.59 143.56,7.28 13.04,22.47 19.71,69.97 -1.82,85.6 18.81,27.89 53.04,-7.47 66.02,-24.9 16.03,-21.54 22.49,-59.78 14.98,-91.47 -7.75,-32.72 -28.29,-52.66 -45.03,-68.5 -17.8,-16.85 -50.96,-30.18 -84.29,-29.74 -152.43,2.01 -204.32,213.28 -78.99,235z"/>
   <path class="fil4" d="M999.17 41.45l-76.7 37.07c-43.65,21.72 -106,30.94 -164.01,60.32 -14.88,7.54 -57.21,36.47 -57.87,47.97 13.22,-0.54 28.92,-10.55 43.01,-14.59 16.11,-4.63 33.33,-7.86 50.06,-10.47 34.38,-5.35 76.97,-4.66 108.85,-11.04l69.25 -5.86c48.45,48.84 78.59,124.76 64.76,218.41 8.07,0.19 16.03,-0.28 24.01,-0.49 3.32,-0.09 7.1,0.17 10.61,-0.44 9.93,-1.74 7.48,0.52 9.11,-4.8 -16.42,-52.39 -48.98,-112.15 -24.64,-182.1 9.13,-26.24 17.34,-30.9 29.55,-45.13 -13.95,0.5 -40.31,4.92 -49.95,-0.39 2.43,-8.3 17.1,-11.11 35.39,-31.07 9.43,-10.3 25.61,-23.39 31.26,-36.77l-41.2 10.17c11.74,-25.31 20.07,-30.27 35.21,-72.25 -11.05,3.31 -34.38,16.73 -48.16,22.97 -14.74,6.67 -32.15,15.33 -48.52,18.49z"/>
   <path class="fil5" d="M339.06 403.89c-10.76,-22.62 -21.21,-33.87 -10.64,-65.97 14.7,-44.66 59.71,-73.9 102.33,-64.24 19.91,4.52 42.31,19.22 48.62,33.13 -7.62,-2.27 -16.56,-5.29 -22.51,0.7l23.16 4.26c0.31,-0.57 1.23,0.2 1.84,0.29 5.63,3.07 8.06,10.14 10.12,15.72 7.49,20.18 7.16,41.51 -1.68,59.99 -2.36,8.08 -7.81,15.97 -11.63,21.02 -6.65,8.8 -11.82,8.25 -17.58,16.29 101.95,-24.57 82.46,-152.86 8.21,-207.22 -129.61,-94.91 -269.89,53.88 -201.13,155.35 12.24,18.06 36.68,43.09 62.28,37.61 10.94,-2.35 5.49,1.49 8.61,-6.94z"/>
   <path class="fil4" d="M110.55 358.85l44.03 4.28c-11.07,-87.8 -1.41,-143.17 54.35,-209.66 15.66,-18.67 34.8,0.01 75.45,-2.34 20.54,5.29 95.38,1.49 160,21.89 14.28,4.51 33.87,15.03 44.53,17.17 6.15,-10.93 -44.09,-42.88 -58.93,-51.03 -25.3,-13.9 -54.4,-21.48 -83.54,-29.7 -115.6,-32.6 -126.58,-56.6 -161.84,-67.82 -17.28,-5.6 -35.88,-11.16 -51.42,-18.08l-45.52 -23.26c2.58,12.05 8.93,26.9 14.08,37.93 6.12,13.09 14.39,23.89 18.97,35.4l-36.87 -11.1c30.78,49.83 66.51,56.16 74.82,71.88l-55.04 -3.69c27.71,14.81 41.89,70.19 39.89,110.46 -2.11,42.6 -9.54,56.02 -22.84,91.7 -2.98,7.99 -7.98,17.31 -10.12,25.98z"/>
   <path class="fil4" d="M381.67 74.2c-7.4,0.02 -5.19,0.84 -8.47,-1.63 11.56,3.64 29.21,6 40.36,10.11 12.51,4.61 23.22,9.96 35.76,14.83 123.47,47.99 135.17,140.26 146.81,156.83 7.15,-54.43 46.87,-99.59 78.04,-122.89 19.19,-14.34 73.16,-43.78 99.99,-49.25 13.17,-2.68 25.35,-6.38 37.57,-9.07 -17.77,0.5 -37.7,5.03 -54.66,3.84 -16.38,-1.15 -33.13,-7.12 -49.42,-10.71 -34.14,-7.51 -70.02,-11.66 -107.25,-11.93 -104.73,-0.76 -139.67,25.19 -218.74,19.86z"/>
   <path class="fil4" d="M711.13 395.75c6.23,-1.61 3.72,-0.83 7.74,-4.79l18.99 -19.43c14.79,20.25 33.45,46.37 71.19,34.96 4.56,-1.38 9.35,-3.89 13.14,-6.17 3.38,-2.03 2.19,-1.28 5.77,-3.85l4.68 -3.49c0.39,-0.29 1.08,-0.85 1.64,-1.24l7.19 -4.37c9.7,6.06 10.07,8.46 17.02,14.66 21.53,-15.63 14.86,-63.13 1.82,-85.6 -30.68,-52.87 -105.09,-64.38 -143.56,-7.28 -22.32,33.13 -16.73,49.7 -5.62,86.6z"/>
   <path class="fil4" d="M339.06 403.89c9.24,-2.56 16.43,-8.83 24.06,-11.37 11.24,3.39 11.56,8.88 24.28,13.48 10.46,3.78 22.09,4.09 32.45,1.71 18.8,-4.33 34.67,-19.69 39.32,-34.96 20.25,7.7 2.32,12.51 31.15,15.04 8.84,-18.49 9.17,-39.81 1.68,-59.99 -2.07,-5.57 -4.49,-12.65 -10.12,-15.72 0.45,15.45 -2.28,22.32 -14.07,28.34 -26.35,4.08 -38.03,-30.91 -10.93,-32.9 5.95,-5.99 14.89,-2.97 22.51,-0.7 -6.31,-13.91 -28.71,-28.61 -48.62,-33.13 -42.62,-9.66 -87.64,19.57 -102.33,64.24 -10.56,32.1 -0.12,43.35 10.64,65.97z"/>
   <path class="fil6" d="M568.65 400.81c-9.7,14.14 -21.33,24.19 -30.72,39.15l14.71 35.53 16.52 33.82c10.21,6.66 16.09,26.18 26.43,33.43 13.59,-11.45 13.17,-25.83 26.52,-29.52 -2.91,-7.38 8.97,-26.76 13.99,-33.41l17.46 -38.04c-6.22,-13.49 -19.78,-26.43 -28.47,-38.26 -11.69,-2.7 -18.2,-10.33 -27.26,-11.09 -10.49,-0.88 -15.77,6.66 -29.18,8.41z"/>
   <path class="fil7" d="M658.22 1055.63c10.76,7.54 6.57,18.31 24.17,27.17 5.22,-11.25 6.71,-17.85 16.88,-21.55 10.24,7.49 9.18,15.24 19.69,20.95 5.9,-7.23 10.26,-19.44 18.89,-23.85 11.39,5.62 11.24,11.41 16.88,24.14 4.39,-1.64 2.44,1.02 8.61,-5.64 11.49,-12.4 7.4,-26.71 7.83,-38.91 -3.75,-5.33 -2.71,-0.65 -1.61,-7.89 -10.39,-3.89 -37.54,-34.32 -59.89,9.65 -7.99,-5.75 -16.68,-18.87 -33.58,-11.9 -11.56,4.77 -11.67,19.88 -17.87,27.84z"/>
   <path class="fil7" d="M410.93 1030.17c0.2,3.81 -3.16,22.29 -4.29,28.26l7.15 13.12c3.06,5.36 4.95,7.52 7.81,10.99 0.4,-0.42 0.95,-1.7 1.09,-1.34l2.93 -4.35c4.78,-8.42 4.63,-12.57 15.64,-18.74l19.29 25.3c7.8,-7.67 11.49,-17.85 22.38,-22.33 8.1,7.37 7.38,11.27 13.79,22 5.79,-3.21 9.53,-6.07 13.15,-11.35 4.16,-6.06 4.42,-11.33 11.34,-16.27 -14.32,-16.31 -13.28,-47.02 -51.01,-15.95 -8.34,-7.2 -11.74,-20.68 -25.07,-23.34 -14.93,-2.98 -24.92,9.21 -34.2,14.01z"/>
   <path class="fil8" d="M363.11 392.51l-11.96 22.05c7.62,14.43 27.43,24.51 49.27,26.21 30.63,2.39 39.75,-9.03 60.67,-15.69 5.77,-8.04 10.94,-7.49 17.58,-16.29 3.81,-5.05 9.27,-12.95 11.63,-21.02 -28.82,-2.53 -10.89,-7.34 -31.15,-15.04 -4.65,15.27 -20.52,30.63 -39.32,34.96 -10.36,2.39 -21.99,2.07 -32.45,-1.71 -12.71,-4.59 -13.03,-10.09 -24.28,-13.48z"/>
   <path class="fil8" d="M711.13 395.75c3.13,5.11 5.31,9.4 9.74,14.23 5.25,5.71 6.38,6.02 10.32,12.44 17.08,6.87 31.63,19.45 57.32,19.12 22.14,-0.29 45.62,-11.55 56.78,-22.75 -3.35,-10.66 -9.82,-8.05 -11.01,-27.04 -0.56,0.39 -1.26,0.95 -1.64,1.24l-4.68 3.49c-3.58,2.56 -2.39,1.82 -5.77,3.85 -3.79,2.27 -8.58,4.79 -13.14,6.17 -37.74,11.41 -56.4,-14.72 -71.19,-34.96l-18.99 19.43c-4.02,3.96 -1.51,3.18 -7.74,4.79z"/>
   <path class="fil9" d="M598.7 469.96c6.54,-9.34 23.73,-56.57 -1.27,-59.59 -20.84,-2.52 -11.75,34.31 -8.07,46.79 3.18,10.82 2.2,9.89 9.35,12.8z"/>
   <path class="fil10" d="M731.19 304.11c2.27,-7.53 1.89,-5.37 5.8,-11.42 -6.51,4.54 -17.31,10.21 -19.68,19.58 -3.09,12.23 2.77,25.46 13.81,27.3 13.46,2.25 24.97,-3.81 24.26,-16.27 -0.81,-14.24 -13.56,-14.19 -24.19,-19.2z"/>
   <path class="fil0" d="M481.86 312.06c-0.62,-0.09 -1.53,-0.86 -1.84,-0.29l-23.16 -4.26c-27.09,1.98 -15.42,36.98 10.93,32.9 11.8,-6.02 14.52,-12.89 14.07,-28.34z"/>
   <path class="fil2" d="M1058.14 405.75c-58.73,-100.65 -174.51,-168.75 -293.64,-171.31 -71.53,-1.54 -142,8.69 -202.45,33.25l61.74 78.28c92.17,99.43 208.28,157.78 347.17,114.3l32.09 -12.4c28.39,-10.83 51.74,-31.29 56.87,-34.1l-1.78 -8.02z"/>
   <path class="fil4" d="M553.55 271.55c5.29,9.9 11.16,20.29 17.72,31.36 39.53,66.7 30.45,43.67 71.07,101.2l-20.38 2.17c6.46,9.8 35.7,25.5 51.5,36.95 64.43,46.71 63.36,58.61 158.73,105.1 42.88,20.9 91.69,37.32 139.77,45.48 51.41,8.72 83.92,5.12 131.57,4.98 10.02,-4.03 5.66,-109.81 4.85,-111.23 -15.11,-26.42 -30.48,-53.32 -46.37,-75.44 -5.13,2.81 -30.59,24.89 -58.98,35.73l-32.09 12.4c-138.88,43.48 -255,-14.87 -347.17,-114.3l-61.51 -77.98c-3.05,1.26 -5.95,2.45 -8.72,3.57z"/>
   <path class="fil2" d="M132.77 393.23c58.73,-100.65 112.74,-156.23 231.88,-158.79 71.52,-1.54 142,8.69 202.45,33.25l-61.74 78.28c-92.17,99.43 -146.52,145.26 -285.4,101.78l-32.09 -12.4c-28.39,-10.83 -51.74,-31.29 -56.87,-34.1l1.78 -8.02z"/>
   <path class="fil4" d="M575.59 271.55c-5.29,9.9 -11.16,20.29 -17.72,31.36 -39.53,66.7 -30.45,43.67 -71.08,101.2l20.38 2.17c-6.46,9.8 -35.7,25.5 -51.5,36.95 -64.44,46.71 -63.36,58.61 -158.73,105.1 -42.88,20.9 -29.93,24.8 -78,32.96 -51.41,8.72 -83.92,5.12 -131.57,4.98 -10.02,-4.03 -5.66,-109.81 -4.85,-111.23 15.11,-26.42 30.48,-53.32 46.37,-75.44 5.13,2.81 30.59,24.89 58.98,35.73l32.09 12.4c138.88,43.48 193.24,-2.35 285.4,-101.78l61.51 -77.98c3.05,1.26 5.95,2.45 8.72,3.57z"/>
  </g>
 </g>
</svg>
