<?xml version="1.0" encoding="UTF-8"?>
<!DOCTYPE svg PUBLIC "-//W3C//DTD SVG 1.1//EN" "http://www.w3.org/Graphics/SVG/1.1/DTD/svg11.dtd">
<!-- Creator: CorelDRAW -->
<svg xmlns="http://www.w3.org/2000/svg" xml:space="preserve" width="24.7337mm" height="24.7337mm" version="1.1" style="shape-rendering:geometricPrecision; text-rendering:geometricPrecision; image-rendering:optimizeQuality; fill-rule:evenodd; clip-rule:evenodd"
viewBox="0 0 33.87 33.87"
 xmlns:xlink="http://www.w3.org/1999/xlink"
 xmlns:xodm="http://www.corel.com/coreldraw/odm/2003">
 <defs>
  <style type="text/css">
   <![CDATA[
    .fil0 {fill:#1F1F36}
   ]]>
  </style>
 </defs>
 <g id="Capa_x0020_1">
  <metadata id="CorelCorpID_0Corel-Layer"/>
  <path class="fil0" d="M29.03 28.07c2.14,0 3.87,-1.73 3.87,-3.87 0,-2.14 -1.73,-3.87 -3.87,-3.87 -2.14,0 -3.87,1.73 -3.87,3.87 0,2.14 1.73,3.87 3.87,3.87zm-4.84 -3.87c0,-2.67 2.17,-4.84 4.84,-4.84 2.67,0 4.84,2.17 4.84,4.84 0,2.67 -2.17,4.84 -4.84,4.84 0,2.67 -2.17,4.84 -4.84,4.84 -2.67,0 -4.84,-2.17 -4.84,-4.84 0,-2.67 2.17,-4.84 4.84,-4.84z"/>
  <path class="fil0" d="M9.68 8.71c2.14,0 3.87,-1.73 3.87,-3.87 0,-2.14 -1.73,-3.87 -3.87,-3.87 -2.14,0 -3.87,1.73 -3.87,3.87 0,2.14 1.73,3.87 3.87,3.87zm-4.84 -3.87c0,-2.67 2.17,-4.84 4.84,-4.84 2.67,0 4.84,2.17 4.84,4.84 0,2.67 -2.17,4.84 -4.84,4.84 0,2.67 -2.17,4.84 -4.84,4.84 -2.67,0 -4.84,-2.17 -4.84,-4.84 0,-2.67 2.17,-4.84 4.84,-4.84z"/>
 </g>
</svg>
